<svg xmlns="http://www.w3.org/2000/svg"  viewBox="0 0 50 50" width="50px" height="50px"><path d="M 25.697266 0.99414062 C 25.465673 0.99505538 25.23335 1.0081379 25.001953 1.0351562 C 24.384896 1.1072053 23.771818 1.2719448 23.185547 1.5351562 L 8.6464844 8.0625 A 1.0001 1.0001 0 0 0 8.0878906 8.5898438 A 1.0001 1.0001 0 0 0 8.0644531 8.6445312 L 1.5351562 23.185547 C 0.48255086 25.531285 0.99014837 28.292121 2.8085938 30.109375 L 9.7480469 37.046875 C 9.7500028 37.048838 9.7519474 37.050773 9.7539062 37.052734 L 20.390625 47.707031 A 1.0001 1.0001 0 0 0 21.097656 48 L 38 48 A 1.0001 1.0001 0 0 0 39 47 L 39 39 L 47 39 A 1.0001 1.0001 0 0 0 48 38 L 48 21.097656 A 1.0001 1.0001 0 0 0 47.707031 20.390625 L 37.052734 9.7539062 C 37.050773 9.7519474 37.048838 9.7500028 37.046875 9.7480469 L 30.109375 2.8085938 C 28.9167 1.6151376 27.318411 0.98773734 25.697266 0.99414062 z M 25.863281 2.9921875 C 26.90675 3.026668 27.923693 3.4505312 28.695312 4.2226562 L 32.470703 8 L 13.667969 8 L 24.003906 3.359375 C 24.60125 3.0911923 25.2372 2.9714992 25.863281 2.9921875 z M 11.412109 10 L 32.8125 10 C 33.872846 10 34.889035 10.421085 35.638672 11.169922 L 36.296875 11.828125 L 44.666016 20.199219 L 44.673828 20.191406 L 46 21.513672 L 46 37 L 38.275391 37 L 11.412109 10 z M 10 11.417969 L 35.455078 37 L 12.53125 37 L 11.464844 35.933594 L 11.169922 35.638672 C 10.421085 34.889035 10 33.872846 10 32.8125 L 10 11.417969 z M 8 13.667969 L 8 32.470703 L 4.2226562 28.695312 C 2.9871016 27.460567 2.6459336 25.598168 3.3613281 24.003906 L 3.359375 24.003906 L 8 13.667969 z M 14.533203 39 L 37 39 L 37 46 L 21.513672 46 L 20.189453 44.673828 L 20.199219 44.664062 L 14.533203 39 z"/></svg>