<svg width="50" height="50" xmlns="http://www.w3.org/2000/svg">

 <g>
  <title>Layer 1</title>
  <path id="svg_1" d="m25,2c-0.71484,0 -1.42578,0.17969 -2.06641,0.53906l-16.84375,9.46485c-1.28125,0.72265 -2.08984,2.07031 -2.08984,3.53125l0,18.92968c0,1.46485 0.80859,2.8125 2.08984,3.53516l16.84375,9.46094c1.28125,0.72265 2.85157,0.72265 4.13282,0l16.84375,-9.46094c1.28515,-0.72266 2.08984,-2.07422 2.08984,-3.53516l0,-18.92968c0,-1.46094 -0.80859,-2.8086 -2.08984,-3.53125l-16.84375,-9.46485c-0.64063,-0.35937 -1.35157,-0.53906 -2.06641,-0.53906zm0,2c0.375,0 0.75391,0.09375 1.08984,0.28125l16.84375,9.46484c0.66797,0.37891 1.06641,1.0586 1.06641,1.78907l0,8.46484l-2,0l0,-2l-2,0l0,2l-2,0l0,2l2,0l0,2l2,0l0,-2l2,0l0,8.46484c0,0.73047 -0.39844,1.41016 -1.07031,1.78907l-16.83985,9.46484c-0.67187,0.375 -1.50781,0.375 -2.17968,0l-16.83985,-9.46484c-0.67187,-0.37891 -1.07031,-1.05469 -1.07031,-1.78907l0,-18.92968c0,-0.73047 0.39844,-1.41016 1.07031,-1.78907l16.83985,-9.46484c0.33593,-0.1875 0.71484,-0.28125 1.08984,-0.28125zm0,8c-7.16016,0 -13,5.83984 -13,13c0,7.16016 5.83984,13 13,13c4.08984,0 7.88672,-1.90625 10.33984,-5.13672l0.6836,-0.90234l-6.05469,-3.50781l-0.54687,0.59375c-1.12891,1.23437 -2.73047,1.95312 -4.42188,1.95312c-3.31641,0 -6,-2.68359 -6,-6c0,-3.31641 2.68359,-6 6,-6c1.69141,0 3.29297,0.71875 4.42188,1.95313l0.54687,0.59375l6.05469,-3.50782l-0.6836,-0.90234c-2.45312,-3.23047 -6.25,-5.13672 -10.33984,-5.13672zm0,2c3.07422,0 5.88672,1.31641 7.94531,3.51172l-2.74218,1.58594c-1.44532,-1.26563 -3.24219,-2.09766 -5.20313,-2.09766c-4.40234,0 -8,3.59766 -8,8c0,4.40234 3.59766,8 8,8c1.96094,0 3.75781,-0.83203 5.20313,-2.09766l2.74218,1.58594c-2.05859,2.19531 -4.87109,3.51172 -7.94531,3.51172c-6.07422,0 -11,-4.92578 -11,-11c0,-6.07422 4.92578,-11 11,-11zm8,8l0,2l-2,0l0,2l2,0l0,2l2,0l0,-2l2,0l0,-2l-2,0l0,-2l-2,0z"/>
  <path stroke="null" fill="none" d="m35,22.72152c0,0.12658 0,0.37975 0,0.63291c0,0.50633 0,1.01266 0,1.13924c0,0.25316 0.01309,0.13844 0.12658,0c0.28935,-0.35295 0.41682,-0.849 0.50633,-0.75949c0.08951,0.08951 0,0.37975 0,0.75949c0,0.25316 0,0 0,-0.12658l0.12658,-0.37975l0.12658,-0.25316" id="svg_6"/>
  <path stroke="null" d="m34.87342,23.73418c0,0.37975 0.06155,0.73718 0.12658,1.01266c0.05817,0.24639 0.18466,0.34094 0.25317,0.50633c0.04844,0.11695 0.13622,0.20472 0.25316,0.25316c0.16539,0.06851 0.16366,0.16366 0.25317,0.25316c0.0895,0.0895 0.25316,0 0.37975,0l0.12658,0l0.12658,0" id="svg_7" fill="none"/>
  <path stroke="#ffffff" d="m34.24051,24.67886c0.23827,0 0.51282,-0.51355 0.95309,0c0.62264,0.72628 0.71482,2.013 1.19136,2.684c0.47655,0.67101 0.64177,0.97886 0.95309,1.342c0.22014,0.25678 0.47655,0 0.71482,0l0.23827,0" id="svg_8" fill="none"/>
  <path d="m42.72152,23.48101c0,0.12658 0,0.25316 0,0.37975c0,0.12658 0,0.25316 0,0.37975c0,0.12658 0,0.25316 0,0.37975c0,0.12658 0,0.25316 0,0.37975c0,0.12658 0,0.25316 0,0.37975c0,0.12658 0,0.25316 0,0.37975c0,0.12658 0,0.37975 0,0.50633c0,0.12658 0,0.25316 0,0.37975c0,0.12658 0,0.25317 0,0.37975c0,0.12658 0,0.25316 0,0.37975l0,0.12658l0,0.12658l0,0.12658" id="svg_10" stroke="#ffffff" fill="none"/>
  <path d="m40.44304,28.5443c0,-0.12658 0,-0.37975 0,-1.01266c0,-0.50633 0,-1.01266 0,-1.64557c0,-0.50633 -0.03927,-1.01697 -0.12658,-1.89874c-0.0636,-0.6423 -0.19234,-0.89098 -0.25317,-1.26582c-0.06412,-0.39512 -0.12658,-0.75949 -0.12658,-1.13924c0,-0.12658 0,-0.50633 -0.12658,-0.50633c-0.25317,0 0,0.75949 0.12658,1.39241c0.12658,0.63291 0.36472,1.64876 0.50633,2.27848c0.1145,0.5092 0.31598,0.8744 0.37975,1.3924c0.03093,0.25127 0,0.63291 0.12658,0.63291c0.25316,0 -0.06308,-0.49848 -0.12658,-1.26582c-0.0522,-0.63075 0,-1.26582 0,-1.64557c0,-0.37975 -0.14363,-0.23946 0,0.50633c0.12891,0.66937 0.37975,1.13924 0.37975,1.51899c0,0.12658 0,-0.12658 0,-0.25316c0,-0.75949 0,-1.13924 0,-1.3924c0,-0.37975 0,-0.75949 0,-0.88608c0,-0.12658 0,-0.25317 0,-0.50633c0,-0.12658 0,-0.50633 0,-0.75949c0,-0.12658 0,-0.25316 -0.25316,0.25316c-0.12658,0.25316 -0.12658,0.63291 -0.37975,0.88608c-0.12658,0.12658 -0.15496,0.24086 -0.25317,0.50633c-0.18108,0.48949 -0.1693,0.67215 -0.37975,1.01266c-0.09411,0.15228 -0.20472,0.51596 -0.25317,0.63291c-0.06851,0.16539 -0.12658,0.25316 -0.25317,0.37975c-0.12658,0.12658 -0.14548,0.18662 -0.25316,0.25317c-0.24077,0.14881 -0.21248,0.23708 -0.37975,-0.12658c-0.30842,-0.67057 -0.69572,-1.38073 -0.75949,-1.89874c-0.07733,-0.62817 0.12658,-1.26582 0,-1.26582c-0.12658,0 0,0.25316 0,0.63291c0,0.50633 0.06187,0.88987 0,1.3924c-0.06377,0.518 -0.34267,0.79657 -0.25317,0.88608c0.08951,0.08951 0.85351,-0.44221 1.51899,-1.51899c0.44642,-0.72232 0.5941,-1.46091 0.75949,-1.3924c0.23389,0.09688 -0.14784,0.62283 -0.37975,1.13924c-0.27925,0.62184 -0.62248,0.93505 -0.75949,1.26582c-0.04844,0.11695 0,0 0,-0.25317c0,-0.50633 0.13542,-1.2644 0.25317,-2.02532c0.13688,-0.88454 0.50633,-1.3924 0.37975,-1.3924c-0.12658,0 0.14541,0.2701 0,0.88608c-0.13006,0.55095 -0.40945,0.90535 -0.50633,1.13924c-0.06851,0.16539 -0.17502,-0.00964 -0.12658,-0.12658c0.13701,-0.33078 0.72456,-0.91427 1.13924,-1.39241c0.23458,-0.27048 0.27977,-0.11665 0.12658,0.25316c-0.21663,0.523 -0.30191,1.18633 -0.63291,1.64557c-0.10467,0.14522 -0.12658,-0.25316 0,-0.50633c0.25317,-0.50633 0.4203,-0.88281 0.37975,-0.63291c-0.06412,0.39512 -0.37975,0.88608 -0.25317,0.88608c0.12658,0 0.15276,-0.35603 0.37975,-0.63291c0.28935,-0.35295 0.20472,-0.64255 0.25317,-0.75949c0.06851,-0.16539 0.12658,-0.25316 0.12658,-0.37975c0,-0.12658 0.08951,-0.41682 0,-0.50633c-0.08951,-0.08951 -0.25655,-0.02908 -0.37975,0c-0.55095,0.13006 -0.80221,0.67215 -1.01266,1.01266c-0.18822,0.30456 -0.56788,0.48402 -0.63291,0.75949c-0.02908,0.1232 -0.02191,0.3611 -0.12658,0.50633c-0.1655,0.22962 -0.20472,0.2628 -0.25316,0.37975c-0.13701,0.33078 -0.37975,0.37975 -0.50633,0.50633c-0.12658,0.12658 -0.54557,0.29588 -0.88608,0.50633c-0.15228,0.09411 -0.50633,0.25316 -0.63291,0.25316c-0.12658,0 -0.27243,0.09688 -0.50633,0c-0.16539,-0.0685 -0.12658,-0.25316 -0.37975,-0.50633c-0.25317,-0.25317 -0.46741,-0.52987 -0.63291,-0.75949c-0.10467,-0.14522 -0.25317,-0.50633 -0.25317,-0.63291c0,-0.12658 -0.1331,-0.29098 0,-0.50633c0.14881,-0.24077 0.48411,-0.13897 0.63291,-0.37975c0.06655,-0.10768 0.25317,-0.12658 0.37975,-0.12658c0.12658,0 0.12658,0.12658 0.12658,0.25316c0,0.37975 0.08386,0.92532 -0.12658,1.26582c-0.28234,0.45684 -0.66999,0.72242 -0.75949,0.63291c-0.17901,-0.17901 -0.272,-0.64984 -0.12658,-1.26582c0.13006,-0.55095 0.63291,-0.88608 0.88608,-1.01266c0.25316,-0.12658 0.34042,0.00122 0.37975,0.63291c0.06342,1.01857 0.272,1.6625 0.12658,2.27848c-0.13006,0.55095 -0.37975,0.75949 -0.25317,0.75949c0.12658,0 0.25317,-0.50633 0.63291,-0.88608c0.37975,-0.37975 0.75949,-0.75949 0.63291,-0.75949c-0.25316,0 -0.01826,0.75116 -0.12658,1.01266c-0.15318,0.36982 -0.21844,0.39431 -0.12658,0.12658c0.20947,-0.61051 0.09998,-1.27575 0.25317,-1.64557c0.10832,-0.2615 0.08006,0.13957 0,0.37975c-0.20014,0.60043 -0.75949,1.51899 -0.63291,1.51899c0.12658,0 0,-0.37975 0,-1.01266c0,-0.63291 -0.26854,-1.70969 0.12658,-1.64557c0.37484,0.06083 -0.06799,1.28529 0.25316,2.27848c0.20973,0.6486 0.22408,1.01604 0.25317,1.13924c0.06503,0.27547 0.25317,0.12658 0.25317,0c0,-0.12658 0.27143,-0.62457 0.37975,-0.88608c0.15318,-0.36982 -0.02191,-0.27181 -0.12658,-0.12658c-0.1655,0.22962 -0.37975,0.50633 -0.75949,0.88608c-0.12658,0.12658 -0.16365,0.41682 -0.25316,0.50633c-0.08951,0.08951 -0.20473,0.13622 -0.25317,0.25316c-0.06851,0.16539 -0.29024,0.16366 -0.37975,0.25316c-0.08951,0.08951 -0.15048,0.2006 -0.25317,0.12658c-0.32473,-0.23405 -0.31598,-0.62124 -0.37975,-1.13924c-0.0464,-0.3769 -0.18813,-1.11693 -0.25317,-1.39241c-0.05817,-0.24639 0.12658,-0.50633 0,-0.50633c-0.12658,0 0,0.88608 0,1.26582c0,0.63291 0,1.26582 0,1.64557c0,0.12658 -0.01891,0.31971 -0.12658,0.25316c-0.24077,-0.14881 -0.11156,-0.50952 -0.25317,-1.13924c-0.1145,-0.5092 -0.25316,-1.01266 -0.25316,-1.77215c0,-0.50633 0,-0.75949 0,-1.01266c0,-0.12658 0,0.12658 0,0.25316c0,0.12658 0,0.63291 0,1.01266c0,0.37975 0.04055,0.76276 0,1.01266c-0.06412,0.39512 -0.12658,0.50633 -0.12658,0.63291c0,0.12658 -0.16366,0.34267 -0.25317,0.25316c-0.17901,-0.17901 -0.18466,-0.46753 -0.25316,-0.63291c-0.09688,-0.23389 -0.06155,-0.6106 -0.12658,-0.88608c-0.05817,-0.24639 0,-0.50633 0,-0.75949c0,-0.12658 0,-0.25316 0,-0.37975c0,-0.12658 0,-0.37975 0,-0.50633c0,-0.37975 0.03934,-0.64307 0.12658,-1.01266c0.06503,-0.27547 0.25316,-0.50633 0.25316,-0.63291c0,-0.12658 -0.04844,-0.2628 0,-0.37975c0.06851,-0.16539 0.12658,0 0.12658,0.37975c0,0.12658 -0.06246,0.36437 -0.12658,0.75949c-0.04055,0.2499 -0.34267,0.79657 -0.25316,0.88608c0.0895,0.0895 0.27725,-0.23817 0.50633,-0.63291c0.28414,-0.48962 0.57483,-0.72069 0.50633,-0.88608c-0.04844,-0.11695 -0.25317,0 -0.37975,0c-0.12658,0 -0.29024,-0.16366 -0.37975,-0.25316c-0.08951,-0.08951 -0.13622,0.07814 -0.25316,0.12658c-0.16539,0.06851 -0.38939,0.20472 -0.50633,0.25316c-0.16539,0.06851 -0.18465,0.21436 -0.25316,0.37975c-0.04844,0.11695 0,0.25316 0,0.37975c0,0.12658 -0.18466,0.46752 -0.25317,0.63291c-0.09688,0.23389 0,0.50633 0,0.63291c0,0.12658 0,0.37975 0,0.50633c0,0.12658 0,0.25316 0,0.75949c0,0.12658 0,0.25316 0,0.37975c0,0.12658 0,0.37975 -0.12658,0.37975c-0.25317,0 -0.47725,-0.12997 -0.50633,-0.25316c-0.06503,-0.27548 -0.4413,-0.48402 -0.50633,-0.75949c-0.02908,-0.1232 0,-0.37975 0,-0.50633c0,-0.25316 0,-0.37975 0,-0.50633c0,-0.12658 -0.02908,-0.37636 0,-0.25317c0.06503,0.27548 0.12658,0.37975 0.25317,0.63291c0.12658,0.25316 0.13622,0.33131 0.25316,0.37975c0.16539,0.06851 0.07814,0.24353 0.12658,0.12658c0.06851,-0.16539 0.12658,-0.50633 0.12658,-1.01266c0,-0.25316 0.01247,-0.50571 0,-0.37975c-0.0636,0.64231 -0.27508,0.86743 -0.37975,1.01266c-0.1655,0.22962 -0.29024,0.29024 -0.37975,0.37975c-0.08951,0.08951 -0.08778,0.31124 -0.25316,0.37975c-0.11695,0.04844 -0.25655,0.0975 -0.37975,0.12658c-0.55095,0.13006 -0.63291,0.37975 -0.25317,0.37975c0.25317,0 0.63291,0 0.88608,0c0.25317,0 0.50633,0.12658 0.63291,0.12658c0.12658,0 0.29024,0.03708 0.37975,0.12658c0.0895,0.0895 0.18661,0.01891 0.25316,0.12658c0.14881,0.24078 0.21436,0.31124 0.37975,0.37975c0.23389,0.09688 0.21436,0.18466 0.37975,0.25316c0.11695,0.04844 0.31471,0.10427 0.37975,0.37975c0.02908,0.1232 0.12658,0.25316 0.25317,0.25316c0.12658,0 0.25316,0 0.37975,0c0.12658,0 0.21609,0.16366 0.12658,0.25316c-0.08951,0.08951 -0.37975,0 -0.50633,0c-0.12658,0 -0.25317,0 -0.37975,0c-0.12658,0 -0.25316,0 -0.37975,0c-0.12658,0 -0.31124,0.03881 -0.37975,-0.12658c-0.04844,-0.11695 -0.05807,-0.21436 -0.12658,-0.37975c-0.09688,-0.23389 0,-0.37975 0,-0.63291c0,-0.37975 -0.11695,-0.58447 0,-0.63291c0.16539,-0.06851 0.21648,0.38518 0.25316,0.50633c0.13226,0.43682 0.35067,0.76288 0.37975,0.88608c0.06503,0.27548 0.16365,0.41682 0.25316,0.50633c0.17902,0.17902 0.20473,-0.13622 0.25317,-0.25316c0.06851,-0.16539 0.12658,-0.37975 0.12658,-0.75949c0,-0.25316 0,-0.50633 0,-0.75949c0,-0.37975 0.25317,-0.88608 0,-0.88608c-0.12658,0 0,0.63291 0,1.13924c0,0.37975 0,0.63291 0,0.75949c0,0.12658 0.01927,0.35004 0.25316,0.25316c0.33078,-0.13701 0.67455,-0.36913 1.26582,-1.26582c0.37525,-0.56908 0.46925,-0.92315 0.37975,-1.01266c-0.0895,-0.0895 -0.50633,0.12658 -0.63291,0.25316l-0.37975,0.63291l0,0.12658" id="svg_11" stroke="#ffffff" fill="none"/>
  <path stroke="#ffffff" d="m37.00984,23.79735c0,-0.44817 0.38546,-1.02759 0,-1.3445c-0.38546,-0.3169 -1.88546,-0.13739 -2.18049,0.44817c-0.2086,0.41405 -1.09023,1.34449 -1.09023,1.79266c0,0.44817 -0.38546,1.02759 0,1.3445c0.38546,0.3169 1.09023,0 1.63535,0c0.54512,0 1.09024,0 1.63537,0c0.54511,0 1.25733,-0.65379 0.54511,-0.89633c-0.50361,-0.1715 -1.09023,0 -1.63535,0c-0.54512,0 -0.54512,-0.44817 -1.09024,-0.44817l-0.54511,-0.44817" id="svg_12" fill="none"/>
  <path d="m41.58228,21.58228c0.12658,0.12658 0.0975,0.25655 0.12658,0.37975c0.06503,0.27547 0.12658,0.37975 0.12658,0.50633c0,0.12658 0.12658,0.25316 0.12658,0.37975c0,0.12658 0,0.37975 0,0.50633c0,0.12658 0,0.37975 0,0.50633c0,0.25316 0,0.37975 0,0.50633c0,0.12658 0,0.25316 0,0.50633c0,0.12658 0,0.25317 0,0.37975c0,0.12658 0,0.25316 0,0.37975c0,0.12658 0,0.25316 0,0.37975c0,0.12658 0,0.25316 0,0.37975c0,0.12658 -0.06155,0.23085 -0.12658,0.50633c-0.05817,0.24639 -0.18813,0.35744 -0.25316,0.63291c-0.02908,0.1232 -0.00964,0.30161 -0.12658,0.25317c-0.16539,-0.06851 -0.20473,-0.2628 -0.25317,-0.37975c-0.0685,-0.16539 0,-0.37975 -0.12658,-0.37975c-0.12658,0 -0.12658,0.37975 0,0.37975c0.12658,0 -0.0975,-0.38313 -0.12658,-0.50633c-0.06503,-0.27548 -0.1693,-0.54557 -0.37975,-0.88608c-0.09411,-0.15228 -0.12658,-0.25317 -0.12658,-0.37975c0,-0.12658 -0.12658,-0.12658 -0.12658,-0.25316c0,-0.12658 -0.16366,-0.21609 -0.25317,-0.12658c-0.08951,0.08951 -0.05807,0.34094 -0.12658,0.50633c-0.04844,0.11695 0,0.25317 0,0.37975l0,0.12658l0,0.12658l0,0.12658" id="svg_13" stroke="#ffffff" fill="none"/>
  <path d="m39.68354,31.4557c-0.12658,0 -0.20473,-0.2628 -0.25317,-0.37975c-0.0685,-0.16539 -0.12658,-0.37975 -0.25316,-0.63291l-0.12658,-0.12658l0,-0.37975l-0.12658,0" id="svg_14" stroke="#ffffff" fill="none"/>
  <path d="m42.08861,27.78481c-0.12658,0 -0.25317,0.12658 -0.25317,0c0,-0.12658 0.12658,-0.37975 0,-0.37975c-0.12658,0 0,0.25316 0,0.37975l0,0.12658" id="svg_15" stroke="#ffffff" fill="none"/>
  <rect id="svg_16" height="7.72152" width="4.55696" y="22.97468" x="38.92405" stroke="#ffffff" fill="none"/>
 </g>
</svg>